<?xml version="1.0" encoding="UTF-8"?>
<svg id="Layer_1" data-name="Layer 1" xmlns="http://www.w3.org/2000/svg" fill="none" stroke-linejoin="round" stroke-width="8px" viewBox="0 0 147.35 164.12">
  <path d="M73.49,126.16L121.41,50.49H25.56l47.92,75.67h0Zm0-122.16L25.6,50.12H121.2L73.48,4h0Zm-.19,0L7.03,43.43l18.43,6.68L73.3,4h0Zm.38,.02l65.52,38.93-17.87,6.99L73.67,4.02h0ZM25.45,50.53L4.03,119.42l69.48,7.33L25.45,50.53h0Zm95.86-.22l21.84,68.83-69.48,7.33L121.3,50.3h0ZM4,119.38L25.18,50.46l-18.25-6.71-2.94,75.63h0Zm139.35-.37l-21.77-68.74,17.69-6.97,4.08,75.71h0Zm-69.71,41.11l69.71-40.64-69.68,7.28-.04,33.36h0Zm-.4-.13L4.02,119.76l69.24,6.89-.03,33.34h0Z"/>
</svg>
